<svg width="50" height="40" viewBox="0 0 50 40" fill="none" xmlns="http://www.w3.org/2000/svg">
<path d="M25.0003 8.03223L7.168 22.733C7.168 22.7538 7.16279 22.7843 7.15236 22.8259C7.14215 22.8672 7.13672 22.8972 7.13672 22.9185V37.8046C7.13672 38.3421 7.33322 38.8079 7.72612 39.2001C8.11891 39.5926 8.58404 39.7901 9.12163 39.7901H21.0302V27.8808H28.9704V39.7905H40.8789C41.4164 39.7905 41.8822 39.5934 42.2744 39.2001C42.6673 38.8083 42.8645 38.3422 42.8645 37.8046V22.9185C42.8645 22.8359 42.8532 22.7736 42.8332 22.733L25.0003 8.03223Z" fill="white"/>
<path d="M49.6551 19.3835L42.8636 13.7392V1.08571C42.8636 0.796441 42.7707 0.558552 42.584 0.372368C42.3989 0.186401 42.161 0.0934179 41.8711 0.0934179H35.9167C35.6271 0.0934179 35.3893 0.186401 35.203 0.372368C35.0172 0.558552 34.9243 0.79655 34.9243 1.08571V7.13321L27.3573 0.806326C26.6964 0.268739 25.9106 0 25.0007 0C24.091 0 23.3053 0.268739 22.6438 0.806326L0.34462 19.3835C0.137906 19.5487 0.0246099 19.7709 0.00353657 20.0501C-0.0174281 20.329 0.0548078 20.5727 0.220461 20.7793L2.14324 23.0743C2.30889 23.2603 2.52571 23.374 2.79456 23.4156C3.04277 23.4365 3.29098 23.3639 3.53918 23.1986L25.0001 5.30342L46.4612 23.1985C46.627 23.3427 46.8437 23.4147 47.1125 23.4147H47.2057C47.4741 23.3739 47.6905 23.2594 47.857 23.0739L49.78 20.7792C49.9454 20.5721 50.0178 20.3289 49.9963 20.0496C49.9751 19.7712 49.8614 19.549 49.6551 19.3835Z" fill="white"/>
</svg>
