<svg width="34" height="34" viewBox="0 0 34 34" fill="none" xmlns="http://www.w3.org/2000/svg">
<path d="M18.5626 2.23053C17.9247 1.86979 17.1699 1.88155 16.5432 2.25929C16.5131 2.27693 16.4844 2.29785 16.4582 2.32007L7.60304 9.81136H0.653519C0.292123 9.81136 0 10.1035 0 10.4649V22.8817C0 23.0556 0.0686195 23.2216 0.191481 23.3438C0.314343 23.466 0.479683 23.5353 0.653519 23.5353L7.58736 23.532L16.438 31.6618C16.4706 31.6918 16.5059 31.718 16.5432 31.7402C16.8647 31.9343 17.2209 32.0317 17.5771 32.0317C17.9149 32.031 18.2521 31.9441 18.5626 31.769C19.2154 31.4004 19.6056 30.7272 19.6056 29.9685V4.03163C19.6056 3.2729 19.2154 2.59977 18.5626 2.23053ZM18.2985 29.9685C18.2985 30.2502 18.1567 30.4979 17.9202 30.6318C17.8189 30.6887 17.562 30.7985 17.2666 30.6488L8.49575 22.5916V19.6141C8.49575 19.2528 8.20363 18.9606 7.84223 18.9606C7.48084 18.9606 7.18871 19.2528 7.18871 19.6141V22.2256L1.30704 22.2282V11.1184H7.18871V13.7325C7.18871 14.0939 7.48084 14.386 7.84223 14.386C8.20363 14.386 8.49575 14.0939 8.49575 13.7325V10.7681L17.2562 3.3572C17.5575 3.19905 17.8182 3.31145 17.9202 3.36896C18.1567 3.50294 18.2985 3.75062 18.2985 4.03163V29.9685Z" fill="white"/>
<path d="M25.3542 4.6177C25.0125 4.50203 24.6413 4.68501 24.5249 5.0268C24.4093 5.36794 24.5922 5.73979 24.934 5.85612C29.5747 7.43176 32.6926 11.779 32.6926 16.6738C32.6926 21.5641 29.5806 25.912 24.9491 27.4922C24.6079 27.6085 24.4249 27.9797 24.5419 28.3222C24.6347 28.5934 24.8883 28.7646 25.1601 28.7646C25.2301 28.7646 25.3013 28.7535 25.3712 28.7293C30.5314 26.9694 33.999 22.1248 33.999 16.6745C33.9997 11.2182 30.5255 6.37371 25.3542 4.6177Z" fill="white"/>
<path d="M28.1181 16.673C28.1181 12.7702 25.4982 9.28694 21.747 8.2021C21.3986 8.10341 21.0386 8.30143 20.9379 8.6491C20.8379 8.99547 21.0372 9.35817 21.3849 9.45816C24.58 10.3816 26.8117 13.3486 26.8117 16.673C26.8117 19.9975 24.58 22.9644 21.3849 23.8879C21.0379 23.9879 20.8379 24.3506 20.9379 24.6969C21.0209 24.9832 21.2817 25.1694 21.5659 25.1694C21.6261 25.1694 21.6868 25.1609 21.747 25.1439C25.4988 24.0591 28.1181 20.5758 28.1181 16.673Z" fill="white"/>
</svg>
